<?xml version="1.0" standalone="no"?>
<!DOCTYPE svg PUBLIC "-//W3C//DTD SVG 20010904//EN"
 "http://www.w3.org/TR/2001/REC-SVG-20010904/DTD/svg10.dtd">
<svg version="1.0" xmlns="http://www.w3.org/2000/svg"
 width="56.000000pt" height="56.000000pt" viewBox="0 0 56.000000 56.000000"
 preserveAspectRatio="xMidYMid meet">

<g transform="translate(0.000000,56.000000) scale(0.100000,-0.100000)"
fill="#000000" stroke="none">
<path d="M233 430 c-37 -15 -53 -51 -55 -131 l-3 -74 29 -3 c22 -3 26 -6 15
-13 -11 -7 -11 -9 4 -9 27 0 33 30 9 49 -11 9 -22 25 -23 36 -4 27 10 65 24
65 6 0 23 12 38 26 27 26 27 26 38 6 9 -17 8 -21 -7 -25 -13 -4 -13 -5 4 -6
41 -2 39 -81 -2 -108 -19 -12 -22 -19 -13 -29 12 -15 44 -20 35 -5 -3 5 5 12
18 15 33 8 43 62 17 90 -13 15 -17 30 -14 52 9 56 -51 89 -114 64z"/>
<path d="M470 430 c0 -5 5 -10 10 -10 6 0 10 5 10 10 0 6 -4 10 -10 10 -5 0
-10 -4 -10 -10z"/>
<path d="M269 330 c-6 -4 1 -7 15 -7 14 0 26 3 26 7 0 3 -7 7 -15 7 -8 0 -19
-4 -26 -7z"/>
<path d="M172 188 c-26 -26 -9 -99 23 -98 5 0 2 5 -7 11 -12 6 -18 22 -18 44
0 22 6 38 18 44 9 6 12 11 7 11 -6 0 -16 -5 -23 -12z"/>
<path d="M359 173 c-13 -16 -12 -17 4 -4 16 13 21 21 13 21 -2 0 -10 -8 -17
-17z"/>
<path d="M397 184 c7 -3 9 -13 6 -22 -4 -14 -3 -14 5 -2 12 16 7 30 -11 29 -9
0 -9 -2 0 -5z"/>
<path d="M237 83 c18 -2 50 -2 70 0 21 2 7 4 -32 4 -38 0 -55 -2 -38 -4z"/>
</g>
</svg>
